<svg version="1.1" xmlns="http://www.w3.org/2000/svg" xmlns:xlink="http://www.w3.org/1999/xlink" x="0px" y="0px"
	 viewBox="0 0 768 384" style="enable-background:new 0 0 768 384;" xml:space="preserve">
<style type="text/css">.st0{fill:#FFFFFF;}</style>
	<rect width="768" height="384"/>
	<rect x="144" y="158.25" class="st0" width="27" height="66"/>
	<polygon points="183,191.25 160.5,191.25 174,224.25 205.5,224.25"/>
	<polygon points="183,191.25 160.5,191.25 174,158.25 205.5,158.25"/>
	<polygon class="st0" points="205.5,158.25 178.5,158.25 156,191.25 178.5,224.25 205.5,224.25 183,191.25"/>
	<polygon class="st0" points="273,224.25 246,224.25 226.5,158.25 253.5,158.25"/>
	<polygon points="238.5,224.25 207,224.25 226.5,158.25 249,158.25"/>
	<polygon class="st0" points="234,224.25 207,224.25 226.5,158.25 253.5,158.25"/>
	<polygon class="st0" points="303,201.75 303,158.25 276,158.25 276,197.25 276,224.25 303,224.25 330,224.25 330,201.75"/>
	<polygon class="st0" points="406.5,158.25 382.5,158.25 374.6,167.8 373.5,169.12 364.5,158.25 340.5,158.25 337.5,158.25 337.5,224.25 364.5,224.25 364.5,201.75 364.5,197.4 367.5,201.75 379.5,201.75 382.5,197.4 382.5,197.4 382.5,201.75 382.5,224.25 382.5,224.5 409.5,224.5 409.5,224.25 409.5,174 409.5,158.25"/>
	<polygon points="389.05,187.91 382.5,197.4 379.5,201.75 382.5,201.75 394.5,180"/>
	<polygon points="364.5,197.4 357.95,187.91 352.5,180 364.5,201.75 367.5,201.75"/>
	<polygon points="379.93,176.89 374.6,167.8 373.5,169.12 373.5,169.12"/>
	<rect x="484.5" y="158.25" class="st0" width="27" height="66"/>
	<rect x="523.5" y="158.25" class="st0" width="27" height="66"/>
	<polygon points="546,224.25 519,224.25 489,158.25 516,158.25"/>
	<polygon class="st0" points="550.5,224.25 523.5,224.25 484.5,158.25 511.5,158.25"/>
	<polygon class="st0" points="624,158.25 604.5,158.25 577.5,158.25 558,158.25 558,185.25 577.5,185.25 577.5,224.25 604.5,224.25 604.5,185.25 624,185.25"/>
	<path class="st0" d="M451.5,225.75h-9c-14.08,0-25.5-11.42-25.5-25.5v-42h60v42C477,214.33,465.58,225.75,451.5,225.75z"/>
	<path d="M447,201.75L447,201.75c-1.66,0-3-1.34-3-3v-40.5h6v40.5C450,200.41,448.66,201.75,447,201.75z"/>
</svg>
