<?xml version="1.0" encoding="utf-8"?>
<!-- Generator: Adobe Illustrator 24.2.2, SVG Export Plug-In . SVG Version: 6.00 Build 0)  -->
<svg version="1.1" id="Ebene_1" xmlns="http://www.w3.org/2000/svg" xmlns:xlink="http://www.w3.org/1999/xlink" x="0px" y="0px"
	 viewBox="0 0 768 384" style="enable-background:new 0 0 768 384;" xml:space="preserve">
<style type="text/css">
	.st0{fill:#FFFFFF;}
	.st1{display:none;fill:none;}
	.st2{display:none;}
	.st3{display:inline;}
</style>
<g>
	<rect width="768" height="384"/>
</g>
<g>
	<g>
		<g>
			<rect x="144" y="158.25" class="st0" width="27" height="66"/>
		</g>
		<g>
			<polygon points="183,191.25 160.5,191.25 174,224.25 205.5,224.25 			"/>
		</g>
		<g>
			<polygon points="183,191.25 160.5,191.25 174,158.25 205.5,158.25 			"/>
		</g>
		<g>
			<polygon class="st0" points="205.5,158.25 178.5,158.25 156,191.25 178.5,224.25 205.5,224.25 183,191.25 			"/>
		</g>
	</g>
	<g>
		<g>
			<polygon class="st0" points="273,224.25 246,224.25 226.5,158.25 253.5,158.25 			"/>
		</g>
		<g>
			<polygon points="238.5,224.25 207,224.25 226.5,158.25 249,158.25 			"/>
		</g>
		<g>
			<polygon class="st0" points="234,224.25 207,224.25 226.5,158.25 253.5,158.25 			"/>
		</g>
	</g>
	<g>
		<polygon class="st0" points="303,201.75 303,158.25 276,158.25 276,197.25 276,224.25 303,224.25 330,224.25 330,201.75 		"/>
	</g>
	<g>
		<g>
			<rect x="337.5" y="158.25" class="st0" width="27" height="66"/>
		</g>
		<g>
			<rect x="382.5" y="158.25" class="st0" width="27" height="66"/>
		</g>
		<g>
			<polygon points="346.5,201.75 382.5,201.75 406.5,158.25 382.5,158.25 			"/>
		</g>
		<g>
			<polygon class="st0" points="346.5,201.75 379.5,201.75 409.5,158.25 382.5,158.25 			"/>
		</g>
		<g>
			<polygon points="394.5,201.75 364.5,201.75 340.5,158.25 369,158.25 			"/>
		</g>
		<g>
			<polygon class="st1" points="389.7,188.7 394.5,180 389.05,187.91 			"/>
			<g class="st2">
				<polygon class="st3" points="394.5,180 406.5,158.25 382.5,158.25 373.5,169.12 389.05,187.91 				"/>
			</g>
			<g class="st2">
				<polygon class="st3" points="409.5,158.25 406.5,158.25 394.5,180 				"/>
			</g>
			<g class="st2">
				<polygon class="st3" points="346.5,201.75 367.5,201.75 357.95,187.91 				"/>
			</g>
			<g>
				<polygon class="st0" points="382.5,201.75 400.5,201.75 389.7,188.7 				"/>
			</g>
			<g class="st2">
				<polygon class="st3" points="389.05,187.91 379.5,201.75 382.5,201.75 389.7,188.7 				"/>
			</g>
			<g>
				<polygon class="st0" points="364.5,158.25 337.5,158.25 357.95,187.91 373.5,169.12 				"/>
			</g>
			<g>
				<polygon class="st0" points="373.5,169.12 357.95,187.91 367.5,201.75 379.5,201.75 389.05,187.91 				"/>
			</g>
		</g>
	</g>
	<g>
		<g>
			<rect x="484.5" y="158.25" class="st0" width="27" height="66"/>
		</g>
		<g>
			<rect x="523.5" y="158.25" class="st0" width="27" height="66"/>
		</g>
		<g>
			<polygon points="546,224.25 519,224.25 489,158.25 516,158.25 			"/>
		</g>
		<g>
			<polygon class="st0" points="550.5,224.25 523.5,224.25 484.5,158.25 511.5,158.25 			"/>
		</g>
	</g>
	<g>
		<polygon class="st0" points="624,158.25 604.5,158.25 577.5,158.25 558,158.25 558,185.25 577.5,185.25 577.5,224.25 
			604.5,224.25 604.5,185.25 624,185.25 		"/>
	</g>
	<g>
		<g>
			<path class="st0" d="M451.5,225.75h-9c-14.08,0-25.5-11.42-25.5-25.5v-42h60v42C477,214.33,465.58,225.75,451.5,225.75z"/>
		</g>
		<g>
			<path d="M447,201.75L447,201.75c-1.66,0-3-1.34-3-3v-40.5h6v40.5C450,200.41,448.66,201.75,447,201.75z"/>
		</g>
	</g>
</g>
</svg>
