<svg xmlns="http://www.w3.org/2000/svg" viewBox="0 0 765 382">
	<style type="text/css">.g{fill:#FFFFFF}</style>
	<rect width="765" height="382"/>
	<polygon class="g" points="192.1,155.8 163.3,155.8 151.2,173.5 155.3,163.7 155.3,155.8 126.5,155.8 126.5,226.2 155.3,226.2 155.3,218.4 151.2,208.7 163.3,226.2 192.1,226.2 168.1,191"/>
	<polygon class="g" points="243.3,155.8 214.5,155.8 193.7,226.2 222.5,226.2 233,191 230.1,208.7 235.3,226.2 264.1,226.2"/>
	<polygon class="g" points="296.1,202.3 296.1,155.8 267.3,155.8 267.3,226.2 324.9,226.2 324.9,202.3"/>
	<polygon class="g" points="380.9,155.6 372.5,165.9 378.1,175.6 361.7,155.6 332.9,155.6 332.9,226 361.7,226 361.7,202.1 348.9,178.9 364.9,202.1 377.7,202.1 393.7,178.9 380.9,202.1 380.9,226 380.9,226.4 409.7,226.4 409.7,226 409.7,155.6"/>
	<path class="g" d="M452.9,155v43.2c0,1.8-1.4,3.2-3.2,3.2c-1.8,0-3.2-1.4-3.2-3.2V155h-28.8v44.8c0,15,12.2,27.2,27.2,27.2h9.6c15,0,27.2-12.2,27.2-27.2V155H452.9z"/>
	<polygon class="g" points="531.3,155.8 531.3,173.5 539.3,191 518.5,155.8 489.7,155.8 489.7,226.2 518.5,226.2 518.5,208.7 510.5,191 531.3,226.2 560.1,226.2 560.1,155.8"/>
	<polygon class="g" points="638.5,155.8 568.1,155.8 568.1,181.4 588.9,181.4 588.9,226.2 617.7,226.2 617.7,181.4 638.5,181.4"/>
</svg>
