<svg xmlns="http://www.w3.org/2000/svg" viewBox="0 0 50 50">
<path d="M43.5,25.6c-0.2-0.3-0.4-0.6-0.6-0.8c-0.2-0.3-0.4-0.6-0.6-0.7c-0.3-0.4-0.7-0.7-1.1-1c-0.2-0.1-0.4-0.3-0.6-0.4l-0.5-0.3c-0.3-0.2-0.6-0.4-0.9-0.5c-0.6-0.3-1-0.5-1.6-0.7c-1.9-0.6-3.3-0.8-4.6-1c-2.6-0.4-5-0.6-7.1-1c-1.1-0.2-2.1-0.5-3.1-0.8V18c0-1.1,0.9-2,2-2s2,0.9,2,2v0.7l4.9,0.5l13-2.2C43.9,8.6,36.7,2,28,2h-6C12.6,2,5,9.6,5,19v1c0.2,1.6,0.7,3.4,1.5,4.4C6.6,24.7,6.8,25,7,25.2c0.2,0.3,0.4,0.6,0.6,0.7c0.3,0.4,0.7,0.7,1.1,1c0.2,0.1,0.4,0.3,0.6,0.4l0.5,0.3c0.3,0.2,0.6,0.4,0.9,0.5c0.6,0.3,1,0.5,1.6,0.7c1.9,0.6,3.3,0.8,4.6,1c2.6,0.4,5,0.6,7.1,1c1.1,0.2,2.1,0.5,3.1,0.8V32c0,1.1-0.9,2-2,2s-2-0.9-2-2v-0.7l-4.9-0.5L5.1,33c1,8.5,8.1,15,16.9,15h6c9.4,0,17-7.6,17-17v-1C44.8,28.4,44.3,26.6,43.5,25.6z"/>
</svg>
